<svg xmlns="http://www.w3.org/2000/svg"><symbol viewBox="0 0 50 26.003" id="icon-right-arrow"><path d="M0 11.002h42.341l-8.175-8.174L36.995 0 50 12.998l-.004.003.004.004-13.005 12.998-2.829-2.828 8.173-8.173H0z"/></symbol><symbol viewBox="-0.8 -0.8 17.6 17.6" id="icon-search"><path d="M16.47 14.93l-3.415-3.415A7.67 7.67 0 0 0 14.6 6.899C14.6 2.646 11.153-.8 6.9-.8S-.8 2.646-.8 6.899s3.446 7.7 7.699 7.7c1.734 0 3.326-.58 4.613-1.546l3.417 3.416c.203.202.418.33.771.33a1.1 1.1 0 0 0 1.1-1.1c0-.24-.061-.499-.33-.769zM1.399 6.899a5.5 5.5 0 1 1 11 0c0 3.038-2.462 5.5-5.5 5.5s-5.5-2.461-5.5-5.5z"/></symbol></svg>